<svg xmlns="http://www.w3.org/2000/svg" xmlns:xlink="http://www.w3.org/1999/xlink" version="1.1" x="0" y="0" width="100" height="100" viewBox="0 0 100 100" xml:space="preserve">
<path fill="white" fill-opacity="0.3" d="M29.181,47.37c2.041-0.883,4.331-1.375,6.744-1.375c3.632,0,6.891,1.116,9.529,2.99c1.527,1.086-0.102,3.379-1.629,2.292  c-2.168-1.539-4.859-2.47-7.9-2.47c-2.03,0-3.94,0.415-5.628,1.145C28.576,50.693,27.46,48.114,29.181,47.37z M42.462,55.041  c0.441,0.976,1.906,0.313,1.464-0.663c-0.949-2.098-3.555-3.434-6.405-3.434c-2.863,0-5.372,1.345-6.316,3.434  c-0.442,0.977,1.022,1.639,1.464,0.663c0.52-1.15,1.911-2.149,3.82-2.418c-0.658,0.395-1.097,1.114-1.097,1.936  c0,1.248,1.011,2.258,2.257,2.258c1.247,0,2.258-1.01,2.258-2.258c0-0.785-0.401-1.477-1.009-1.881  C40.664,53.011,41.976,53.965,42.462,55.041z M20.351,53.712c-0.99,0.245-0.623,1.73,0.367,1.486  c0.685-0.17,1.952,0.632,2.939,2.445c-0.249,0.306-0.32,0.829-0.151,1.42c0.263,0.916,1.01,1.675,1.665,1.623  c1.437-0.112,0.521-2.246,0.434-2.453C24.543,55.542,22.471,53.188,20.351,53.712z M35.925,49.707c-0.49,0-0.972,0.026-1.444,0.075  l-0.395,0.869c1.055-0.375,2.229-0.607,3.436-0.607C38.461,50.044,37.481,49.707,35.925,49.707z M82.1,60.389  c-2.101,3.998-3.902,6.425-6.125,6.91c-0.263,3.432-0.464,6.516-0.572,9.318c-0.328,8.465,0.188,14.388,2.388,19.643  c0.378,0.904-0.444,1.511-1.196,0.883c0,0-1.484-1.239-4.458-3.772c0.439,1.119,0.669,1.69,1.135,2.782  c0.365,0.851-0.304,1.435-1.097,0.956c0,0-3.673-2.209-7.454-4.413c-0.222,0.707-0.737,2.274-0.737,2.274s-0.043,0.1-0.158,0.272  c-2.427,3.657-9.98,4.237-13.498,4.237c-11.276-0.001-13.508-4.174-13.667-4.51c0,0-0.518-1.575-0.741-2.285  c-3.787,2.207-7.472,4.424-7.472,4.424c-0.792,0.479-1.461-0.105-1.097-0.956c0.466-1.092,0.696-1.663,1.135-2.782  c-2.974,2.533-4.458,3.772-4.458,3.772c-0.753,0.628-1.575,0.021-1.196-0.883c2.199-5.254,2.716-11.177,2.388-19.641v-0.002  c-0.109-2.802-0.311-5.886-0.574-9.317c-2.214-0.481-4.012-2.891-6.102-6.863c-2.114-4.034-2.605-9.66,0.936-10.908l0.054-0.018  c1.256-0.396,2.564-0.164,3.772,0.485c-0.19-2.054-1.212-12.809-1.212-12.809c-0.343-4.473-0.475-8.763-0.144-12.736  c0.291-3.47,0.936-6.727,2.126-9.676c1.618-4.005,4.233-7.392,8.266-9.896c0.156-0.121,0.324-0.167,0.484-0.157  c0.22,0.012,0.427,0.13,0.566,0.3c0.14,0.17,0.212,0.393,0.167,0.618c-0.014,0.088-0.046,0.174-0.098,0.255  c0.714-0.259,1.458-0.484,2.233-0.681c2.906-3.239,7.548-4.899,12.219-4.914c2.266,0,4.409,0.374,6.375,1.062  c0.701-0.107,1.413-0.167,2.131-0.177c2.02-0.025,4.007,0.383,5.906,1.072c1.359,0.495,2.636,1.132,3.802,1.887  c0.094,0.062,0.168,0.131,0.223,0.206c1.085,0.151,2.004,0.372,2.64,0.648c0.182,0.052,0.315,0.158,0.402,0.292  c0.109,0.149,0.146,0.327,0.129,0.5c2.916,0.86,5.364,2.248,6.972,4.05c0.143,0.121,0.22,0.271,0.245,0.427  c0.049,0.228-0.023,0.449-0.162,0.618c-0.14,0.169-0.347,0.286-0.565,0.3c-0.155,0.011-0.317-0.029-0.466-0.138  c-0.728-0.374-1.664-0.674-2.703-0.86c0.252,0.284,0.492,0.579,0.726,0.887c3.379,2.233,5.839,5.186,6.807,8.071  c0.084,0.167,0.097,0.335,0.058,0.488c-0.044,0.229-0.198,0.404-0.393,0.505c-0.193,0.101-0.429,0.126-0.635,0.056  c-0.148-0.051-0.281-0.151-0.375-0.31c-0.546-0.655-1.353-1.341-2.313-1.952c1.267,4.857,1.553,11.312,0.93,19.836  c-0.259,4.11-0.466,8.144-0.976,12.602c1.365-0.94,2.9-1.351,4.396-0.868C84.688,50.708,84.196,56.389,82.1,60.389z M23.628,37.206  c0.316,3.178,0.778,8.1,1.05,11.029c0.204-1.55,0.65-2.983,1.457-4.776c0.742-1.65,1.395-3.339,0.508-8.684  c-0.779-4.695,0.737-8.529,4.354-10.579c-0.57-0.282-1.087-0.609-1.534-0.982c-0.715-0.597-0.374-1.427,0.554-1.35  c0,0,0.996,0.082,2.224,0.101c1.263,0.019,2.658-0.033,3.494-0.261c0.984-0.269,1.389,1.206,0.404,1.476  c-0.746,0.205-1.746,0.286-2.707,0.311c3.641,1.024,8.64,0.647,11.104-0.899c0.864-0.542,1.678,0.754,0.813,1.296  c-1.474,0.924-3.684,1.496-6.047,1.657c2.303,0.249,5.201,0.254,7.773-0.502c-0.372-0.552,0.183-1.462,0.959-1.123  c0.358,0.156,0.767,0.279,1.219,0.369l0.124,0.023c2.815,0.507,7.215-0.279,11.231-2.715c0.759-0.46,1.457,0.469,1.055,1.067  c7.918,0.233,12.225,5.02,11.397,12.144c-0.619,5.327-0.203,5.989,1.644,10.124c0.322,0.721,0.567,1.462,0.754,2.217  c0.361-4.019,0.529-7.768,0.789-11.665c0.003-0.043,0.009-0.084,0.017-0.124c0.455-8.135-0.023-14.087-1.437-18.427  c-1.335-0.579-2.806-0.956-4.234-0.949c-1.021,0.004-1.027-1.525-0.008-1.53c2.304-0.011,4.658,0.818,6.558,1.947  c-1.123-1.473-2.658-2.901-4.528-4.122c-0.309-0.2-1.439-1.654-2.163-2.301c-2.306,0.005-4.702,0.614-6.267,2.178  c-0.722,0.721-1.803-0.361-1.083-1.082c2.381-2.38,6.112-2.901,9.236-2.506c-1.634-0.875-3.635-1.539-5.887-1.912  c-2.989,0.564-6.612,2.44-7.771,5.458c-0.365,0.952-1.795,0.404-1.429-0.548c1.142-2.977,4.074-4.919,6.945-5.888  c-3.523-0.178-7.985,0.284-9.965,1.665c-0.036,0.025-0.072,0.047-0.109,0.066c-0.184,0.176-0.363,0.357-0.54,0.545  c-1.141,1.225-1.976,2.616-2.541,4.138c-0.81,2.18-1.069,4.644-0.86,7.287c0.081,1.017-1.445,1.138-1.526,0.121  c-0.222-2.812,0.048-5.507,0.95-7.939c0.632-1.704,1.572-3.271,2.893-4.687c1.588-1.692,3.499-2.972,5.595-3.816  c0.859-0.347,1.41,0.792,0.795,1.29c1.299-0.168,2.657-0.242,3.96-0.235c-0.342-0.15-0.69-0.29-1.048-0.419  c-1.722-0.626-3.53-1.004-5.37-0.98c-3.165,0.042-6.231,1.18-8.724,3.017c-0.078,0.058-0.155,0.105-0.229,0.144  c-0.43,0.855-0.756,1.755-0.987,2.7c-0.508,2.074-0.549,4.345-0.19,6.738c0.151,1.009-1.362,1.235-1.513,0.227  c-0.381-2.548-0.347-5.027,0.221-7.342c0.478-1.948,1.333-3.766,2.624-5.388c0.465-0.584,1.23-0.231,1.359,0.313  c0.723-0.383,1.475-0.716,2.251-0.993c-1.069-0.198-2.182-0.301-3.334-0.301c-4.371,0.012-8.583,1.585-11.126,4.462l-0.105,0.123  c-1.335,1.552-2.456,3.574-2.767,5.608c-0.155,1.008-1.667,0.777-1.513-0.231c0.247-1.606,0.907-3.158,1.755-4.52  c-0.867,0.306-1.676,0.658-2.429,1.064c-0.819,1.582-1.34,3.423-1.441,4.967c-0.092,1.418,0.12,2.785,0.744,3.959  c0.479,0.9-0.873,1.619-1.352,0.718c-0.789-1.485-1.025-3.152-0.919-4.776c0.091-1.398,0.474-2.973,1.088-4.45  c-1.936,1.89-3.345,4.109-4.353,6.606c-1.112,2.756-1.734,5.855-2.016,9.225C23.146,28.517,23.284,32.769,23.628,37.206z   M35.457,91.183c-0.979-3.24-1.683-6.003-2.145-8.351c-0.277-0.275-0.549-0.562-0.816-0.863c-1.292-1.454-2.458-3.217-3.435-5.349  v-0.003c-0.128-0.276-0.253-0.565-0.376-0.858c-0.986-2.385-1.761-5.176-2.217-8.481c-0.096,0.022-0.191,0.04-0.286,0.056  c0.259,3.393,0.461,6.468,0.569,9.284c0.274,7.159-0.049,12.664-1.53,17.518c1.109-0.938,2.642-2.242,4.6-3.918  c0.743-0.636,1.569-0.048,1.209,0.863c-0.705,1.782-1.085,2.764-1.39,3.531C31.137,93.72,33.296,92.44,35.457,91.183z   M65.411,84.479c-0.985,0.739-2.004,1.349-3.031,1.852c-2.342,1.142-4.717,1.726-6.843,2.036c-0.888,1.258-2.541,2.086-5.245,2.188  c-2.707-0.102-4.341-0.932-5.219-2.188c-1.921-0.281-4.042-0.786-6.153-1.722c-1.253-0.556-2.493-1.26-3.685-2.152  c0.646,2.771,1.598,6.063,2.858,9.903c2.051,3.093,9.473,3.554,12.223,3.555c2.759-0.001,10.18-0.462,12.231-3.555  C63.812,90.549,64.765,87.253,65.411,84.479z M73.869,76.619v-0.002c0.109-2.815,0.31-5.891,0.569-9.284  c-0.098-0.016-0.195-0.033-0.295-0.057c-0.298,2.178-0.728,4.129-1.264,5.878c-0.383,1.254-0.821,2.406-1.308,3.465h-0.001  c-0.46,1.011-0.964,1.935-1.505,2.783c-0.838,1.316-1.758,2.444-2.732,3.412c-0.462,2.354-1.167,5.127-2.15,8.379  c2.154,1.254,4.305,2.53,5.797,3.418c-0.305-0.768-0.687-1.749-1.39-3.531c-0.358-0.911,0.466-1.499,1.21-0.863  c1.958,1.676,3.49,2.979,4.599,3.918C73.918,89.281,73.595,83.776,73.869,76.619z M80.6,50.961  c-1.378-0.447-3.149,0.292-4.721,2.242c-0.215,0.266-0.49,0.336-0.739,0.279c-0.355-0.033-0.687-0.29-0.682-0.767  c0.033-3.646-0.297-5.483-1.82-8.531c-0.975-1.95-1.746-3.946-1.096-9.554c0.677-5.831-2.513-9.992-9.277-10.413l-16.436,23.93  c-2.593-1.802-5.739-2.912-9.223-3.042l8.227-18.09c-4.977,0.625-10.565-0.398-11.175-1.89c-0.23-0.054-0.456-0.113-0.679-0.176  c-3.854,1.489-5.604,4.894-4.827,9.573c0.921,5.545,0.559,6.442-1.223,10.932c-0.896,2.259-0.931,4.759-0.789,7.152  c0.014,0.235-0.057,0.422-0.176,0.556c-0.269,0.364-0.845,0.512-1.225,0.04c-1.567-1.944-3.388-2.665-4.745-2.233  c-1.837,0.651-2.329,4.498-0.102,8.743c2.881,5.479,4.549,6.614,6.591,5.979c0.043-0.021,0.086-0.04,0.13-0.055  c0.364-0.282,0.987-0.219,1.192,0.271l0.106,0.621c0.429,3.43,1.204,6.27,2.184,8.639c0.209,0.505,0.429,0.988,0.658,1.449h0.001  c0.849,1.717,1.827,3.146,2.884,4.336c1.798,2.022,3.833,3.375,5.896,4.29c1.627,0.722,3.275,1.173,4.835,1.458  c-0.14-0.938,1.284-1.237,1.505-0.268c0.287,1.253,1.192,2.464,4.416,2.592c3.232-0.128,4.164-1.344,4.448-2.592  c0.223-0.97,1.646-0.67,1.506,0.268c1.758-0.32,3.628-0.851,5.456-1.743c2.565-1.253,5.067-3.227,7.068-6.369  c0.39-0.611,0.761-1.267,1.109-1.973c0.577-1.165,1.095-2.462,1.537-3.909c0.589-1.923,1.043-4.099,1.327-6.562  c0.014-0.109,0.042-0.204,0.084-0.287c0.09-0.352,0.423-0.569,0.942-0.344c0.063,0.021,0.122,0.049,0.177,0.086l0.187,0.093  c2.046,0.637,3.717-0.505,6.605-6.009C82.965,55.442,82.453,51.585,80.6,50.961z M46.955,49.784  c0.214,1.626-1.515,3.333-3.287,2.448l-0.063,0.047c0.199,0.178,0.446,0.414,0.611,0.623c2.879,2.729-1.236,5.807-6.479,5.807  c-2.24,0-4.766-0.542-6.368-2.081l-2.671,5.872l5.795-3.413l-3.81,14.924l30.007-34.453L46.955,49.784z M71.453,47.37  c-2.041-0.883-4.33-1.375-6.744-1.375c-3.632,0-6.892,1.116-9.527,2.99c-1.529,1.086,0.1,3.379,1.628,2.292  c2.167-1.539,4.858-2.47,7.899-2.47c2.03,0,3.94,0.415,5.627,1.145C72.057,50.693,73.174,48.114,71.453,47.37z M61.134,68.86  c-0.773,0.217-0.447,1.377,0.326,1.16c0.896-0.251,1.874,0.896,1.964,1.719c0.087,0.8,1.285,0.669,1.197-0.13  C64.452,70.059,62.791,68.396,61.134,68.86z M80.283,53.712c-2.12-0.523-4.191,1.83-5.254,4.521  c-0.087,0.207-1.003,2.341,0.434,2.453c0.654,0.052,1.402-0.707,1.664-1.623c0.169-0.591,0.099-1.114-0.149-1.42  c0.986-1.813,2.254-2.615,2.938-2.445C80.906,55.442,81.273,53.957,80.283,53.712z M63.113,50.944c-2.852,0-5.456,1.336-6.405,3.434  c-0.441,0.977,1.022,1.639,1.464,0.663c0.487-1.076,1.798-2.03,3.564-2.363c-0.608,0.404-1.009,1.096-1.009,1.881  c0,1.248,1.011,2.258,2.258,2.258s2.257-1.01,2.257-2.258c0-0.821-0.439-1.541-1.096-1.936c1.909,0.269,3.298,1.268,3.818,2.418  c0.442,0.976,1.906,0.313,1.466-0.663C68.484,52.289,65.977,50.944,63.113,50.944z M56.641,66.701  c1.071-0.028,1.03-1.636-0.041-1.606c-2.922,0.073-3.635,2.331-6.317,2.331c-2.884,0-3.571-1.854-6.104-2.319  c-1.053-0.192-1.343,1.388-0.29,1.581c0.966,0.177,1.604,0.597,2.266,1.034c-0.045,0.279,0.065,0.58,0.408,0.74  c1.124,0.519,2.328,0.672,3.756,0.682c1.266-0.01,2.469-0.163,3.593-0.682c0.4-0.187,0.484-0.565,0.372-0.876l0.352-0.245  C55.256,66.935,55.887,66.72,56.641,66.701z M61.65,72.416c-0.337,0.258-0.723,0.488-1.164,0.694  c-0.106,0.07-0.24,0.142-0.406,0.209c-0.466,0.19-0.793,0.694-1.253,1.102c-0.503,0.447-1.011,0.833-1.529,1.162  c-0.537,0.354-1.116,0.71-1.741,1.034c-1.509,0.786-3.281,1.397-5.364,1.401c-2.082-0.004-3.854-0.615-5.364-1.401  c-0.625-0.324-1.204-0.68-1.741-1.034c-0.519-0.329-1.026-0.715-1.53-1.162c-0.46-0.407-0.786-0.911-1.252-1.102  c-0.155-0.062-0.282-0.129-0.385-0.195c-0.454-0.209-0.848-0.444-1.192-0.708c-0.785-0.6,0.114-1.774,0.898-1.176  c1.426,1.091,4.304,1.74,10.558,1.74c6.254,0,9.14-0.649,10.566-1.74C61.534,70.642,62.434,71.816,61.65,72.416z M56.887,74.081  c-1.756,0.26-3.952,0.378-6.702,0.378c-2.74,0-4.931-0.118-6.683-0.375c0.201,0.149,0.409,0.288,0.628,0.419  c0.155,0.091,0.317,0.183,0.49,0.268l0.248,0.12c1.202,0.553,2.87,0.979,5.325,0.979c2.456,0,4.124-0.426,5.325-0.979l0.248-0.12  c0.173-0.085,0.335-0.177,0.489-0.268C56.477,74.372,56.686,74.23,56.887,74.081z M38.926,70.021  c0.773,0.217,1.099-0.943,0.326-1.16c-1.657-0.465-3.318,1.198-3.487,2.749c-0.087,0.799,1.111,0.93,1.198,0.13  C37.052,70.916,38.031,69.77,38.926,70.021z"/>
</svg>